<mxfile host="Electron" agent="Mozilla/5.0 (Windows NT 10.0; Win64; x64) AppleWebKit/537.36 (KHTML, like Gecko) draw.io/26.0.16 Chrome/132.0.6834.196 Electron/34.2.0 Safari/537.36" version="26.0.16">
  <diagram name="Page-1" id="9ciNEuFJplWLZKSUM0I-">
    <mxGraphModel dx="1687" dy="993" grid="1" gridSize="10" guides="1" tooltips="1" connect="1" arrows="1" fold="1" page="1" pageScale="1" pageWidth="850" pageHeight="1100" math="0" shadow="0">
      <root>
        <mxCell id="0" />
        <mxCell id="1" parent="0" />
        <mxCell id="q-ogtCQyWW32maulDkhW-58" value="compare" style="whiteSpace=wrap;html=1;fillColor=#1ba1e2;fontColor=#000000;strokeColor=#006EAF;" vertex="1" parent="1">
          <mxGeometry width="1700" height="40" as="geometry" />
        </mxCell>
        <mxCell id="q-ogtCQyWW32maulDkhW-59" value="" style="group" vertex="1" connectable="0" parent="1">
          <mxGeometry y="80" width="1050" height="770" as="geometry" />
        </mxCell>
        <mxCell id="q-ogtCQyWW32maulDkhW-47" value="" style="edgeStyle=orthogonalEdgeStyle;rounded=0;orthogonalLoop=1;jettySize=auto;html=1;" edge="1" parent="q-ogtCQyWW32maulDkhW-59" source="q-ogtCQyWW32maulDkhW-45" target="q-ogtCQyWW32maulDkhW-46">
          <mxGeometry relative="1" as="geometry" />
        </mxCell>
        <mxCell id="q-ogtCQyWW32maulDkhW-45" value="" style="rounded=0;whiteSpace=wrap;html=1;fillColor=#a20025;strokeColor=#6F0000;fontColor=#ffffff;" vertex="1" parent="q-ogtCQyWW32maulDkhW-59">
          <mxGeometry width="840" height="170" as="geometry" />
        </mxCell>
        <mxCell id="q-ogtCQyWW32maulDkhW-2" value="" style="whiteSpace=wrap;html=1;shadow=0;" vertex="1" parent="q-ogtCQyWW32maulDkhW-59">
          <mxGeometry x="160" y="10" width="320" height="160" as="geometry" />
        </mxCell>
        <mxCell id="q-ogtCQyWW32maulDkhW-3" value="" style="whiteSpace=wrap;html=1;fillColor=#f5f5f5;fontColor=#333333;strokeColor=#666666;shadow=0;" vertex="1" parent="q-ogtCQyWW32maulDkhW-59">
          <mxGeometry x="170" y="17.5" width="300" height="40" as="geometry" />
        </mxCell>
        <mxCell id="q-ogtCQyWW32maulDkhW-7" value="select category" style="text;html=1;align=center;verticalAlign=middle;resizable=0;points=[];autosize=1;strokeColor=none;fillColor=default;shadow=0;" vertex="1" parent="q-ogtCQyWW32maulDkhW-59">
          <mxGeometry x="190" y="22.5" width="100" height="30" as="geometry" />
        </mxCell>
        <mxCell id="q-ogtCQyWW32maulDkhW-10" value="" style="whiteSpace=wrap;html=1;fillColor=#f5f5f5;fontColor=#333333;strokeColor=#666666;shadow=0;" vertex="1" parent="q-ogtCQyWW32maulDkhW-59">
          <mxGeometry x="170" y="70" width="300" height="40" as="geometry" />
        </mxCell>
        <mxCell id="q-ogtCQyWW32maulDkhW-11" value="select brand" style="text;html=1;align=center;verticalAlign=middle;resizable=0;points=[];autosize=1;strokeColor=none;fillColor=default;shadow=0;" vertex="1" parent="q-ogtCQyWW32maulDkhW-59">
          <mxGeometry x="195" y="75" width="90" height="30" as="geometry" />
        </mxCell>
        <mxCell id="q-ogtCQyWW32maulDkhW-17" value="" style="whiteSpace=wrap;html=1;fillColor=#f5f5f5;fontColor=#333333;strokeColor=#666666;shadow=0;" vertex="1" parent="q-ogtCQyWW32maulDkhW-59">
          <mxGeometry x="170" y="120" width="300" height="40" as="geometry" />
        </mxCell>
        <mxCell id="q-ogtCQyWW32maulDkhW-18" value="" style="html=1;shadow=0;dashed=0;align=center;verticalAlign=middle;shape=mxgraph.arrows2.arrow;dy=0.6;dx=40;direction=south;notch=0;" vertex="1" parent="q-ogtCQyWW32maulDkhW-59">
          <mxGeometry x="450" y="135.5" width="14" height="9.5" as="geometry" />
        </mxCell>
        <mxCell id="q-ogtCQyWW32maulDkhW-19" value="select model" style="text;html=1;align=center;verticalAlign=middle;resizable=0;points=[];autosize=1;strokeColor=none;fillColor=default;shadow=0;" vertex="1" parent="q-ogtCQyWW32maulDkhW-59">
          <mxGeometry x="195" y="125" width="90" height="30" as="geometry" />
        </mxCell>
        <mxCell id="q-ogtCQyWW32maulDkhW-20" value="" style="html=1;shadow=0;dashed=0;align=center;verticalAlign=middle;shape=mxgraph.arrows2.arrow;dy=0.6;dx=40;direction=south;notch=0;" vertex="1" parent="q-ogtCQyWW32maulDkhW-59">
          <mxGeometry x="451" y="85.5" width="14" height="9.5" as="geometry" />
        </mxCell>
        <mxCell id="q-ogtCQyWW32maulDkhW-21" value="" style="html=1;shadow=0;dashed=0;align=center;verticalAlign=middle;shape=mxgraph.arrows2.arrow;dy=0.6;dx=40;direction=south;notch=0;" vertex="1" parent="q-ogtCQyWW32maulDkhW-59">
          <mxGeometry x="451" y="34.5" width="14" height="9.5" as="geometry" />
        </mxCell>
        <mxCell id="q-ogtCQyWW32maulDkhW-23" value="" style="whiteSpace=wrap;html=1;shadow=0;" vertex="1" parent="q-ogtCQyWW32maulDkhW-59">
          <mxGeometry x="40" y="10" width="120" height="160" as="geometry" />
        </mxCell>
        <mxCell id="q-ogtCQyWW32maulDkhW-24" value="Add new product" style="text;html=1;align=center;verticalAlign=middle;resizable=0;points=[];autosize=1;strokeColor=none;fillColor=none;shadow=0;" vertex="1" parent="q-ogtCQyWW32maulDkhW-59">
          <mxGeometry x="45" y="20" width="110" height="30" as="geometry" />
        </mxCell>
        <mxCell id="q-ogtCQyWW32maulDkhW-25" value="+" style="text;html=1;align=center;verticalAlign=middle;resizable=0;points=[];autosize=1;strokeColor=none;fillColor=none;shadow=0;" vertex="1" parent="q-ogtCQyWW32maulDkhW-59">
          <mxGeometry x="85" y="75" width="30" height="30" as="geometry" />
        </mxCell>
        <mxCell id="q-ogtCQyWW32maulDkhW-26" value="" style="group;shadow=0;" vertex="1" connectable="0" parent="q-ogtCQyWW32maulDkhW-59">
          <mxGeometry x="480" y="10" width="320" height="160" as="geometry" />
        </mxCell>
        <mxCell id="q-ogtCQyWW32maulDkhW-27" value="" style="whiteSpace=wrap;html=1;shadow=0;" vertex="1" parent="q-ogtCQyWW32maulDkhW-26">
          <mxGeometry width="320" height="160" as="geometry" />
        </mxCell>
        <mxCell id="q-ogtCQyWW32maulDkhW-28" value="" style="whiteSpace=wrap;html=1;fillColor=#f5f5f5;fontColor=#333333;strokeColor=#666666;shadow=0;" vertex="1" parent="q-ogtCQyWW32maulDkhW-26">
          <mxGeometry x="10" y="7.5" width="300" height="40" as="geometry" />
        </mxCell>
        <mxCell id="q-ogtCQyWW32maulDkhW-29" value="select category" style="text;html=1;align=center;verticalAlign=middle;resizable=0;points=[];autosize=1;strokeColor=none;fillColor=default;shadow=0;" vertex="1" parent="q-ogtCQyWW32maulDkhW-26">
          <mxGeometry x="30" y="12.5" width="100" height="30" as="geometry" />
        </mxCell>
        <mxCell id="q-ogtCQyWW32maulDkhW-30" value="" style="whiteSpace=wrap;html=1;fillColor=#f5f5f5;fontColor=#333333;strokeColor=#666666;shadow=0;" vertex="1" parent="q-ogtCQyWW32maulDkhW-26">
          <mxGeometry x="10" y="60" width="300" height="40" as="geometry" />
        </mxCell>
        <mxCell id="q-ogtCQyWW32maulDkhW-31" value="select brand" style="text;html=1;align=center;verticalAlign=middle;resizable=0;points=[];autosize=1;strokeColor=none;fillColor=default;shadow=0;" vertex="1" parent="q-ogtCQyWW32maulDkhW-26">
          <mxGeometry x="35" y="65" width="90" height="30" as="geometry" />
        </mxCell>
        <mxCell id="q-ogtCQyWW32maulDkhW-32" value="" style="whiteSpace=wrap;html=1;fillColor=#f5f5f5;fontColor=#333333;strokeColor=#666666;shadow=0;" vertex="1" parent="q-ogtCQyWW32maulDkhW-26">
          <mxGeometry x="10" y="110" width="300" height="40" as="geometry" />
        </mxCell>
        <mxCell id="q-ogtCQyWW32maulDkhW-33" value="" style="html=1;shadow=0;dashed=0;align=center;verticalAlign=middle;shape=mxgraph.arrows2.arrow;dy=0.6;dx=40;direction=south;notch=0;" vertex="1" parent="q-ogtCQyWW32maulDkhW-26">
          <mxGeometry x="290" y="125.5" width="14" height="9.5" as="geometry" />
        </mxCell>
        <mxCell id="q-ogtCQyWW32maulDkhW-34" value="select model" style="text;html=1;align=center;verticalAlign=middle;resizable=0;points=[];autosize=1;strokeColor=none;fillColor=default;shadow=0;" vertex="1" parent="q-ogtCQyWW32maulDkhW-26">
          <mxGeometry x="35" y="115" width="90" height="30" as="geometry" />
        </mxCell>
        <mxCell id="q-ogtCQyWW32maulDkhW-35" value="" style="html=1;shadow=0;dashed=0;align=center;verticalAlign=middle;shape=mxgraph.arrows2.arrow;dy=0.6;dx=40;direction=south;notch=0;" vertex="1" parent="q-ogtCQyWW32maulDkhW-26">
          <mxGeometry x="291" y="75.5" width="14" height="9.5" as="geometry" />
        </mxCell>
        <mxCell id="q-ogtCQyWW32maulDkhW-36" value="" style="html=1;shadow=0;dashed=0;align=center;verticalAlign=middle;shape=mxgraph.arrows2.arrow;dy=0.6;dx=40;direction=south;notch=0;" vertex="1" parent="q-ogtCQyWW32maulDkhW-26">
          <mxGeometry x="291" y="24.5" width="14" height="9.5" as="geometry" />
        </mxCell>
        <mxCell id="q-ogtCQyWW32maulDkhW-46" value="compare action form" style="whiteSpace=wrap;html=1;rounded=0;" vertex="1" parent="q-ogtCQyWW32maulDkhW-59">
          <mxGeometry x="930" y="55" width="120" height="60" as="geometry" />
        </mxCell>
        <mxCell id="q-ogtCQyWW32maulDkhW-54" value="" style="edgeStyle=orthogonalEdgeStyle;rounded=0;orthogonalLoop=1;jettySize=auto;html=1;" edge="1" parent="q-ogtCQyWW32maulDkhW-59" source="q-ogtCQyWW32maulDkhW-48" target="q-ogtCQyWW32maulDkhW-53">
          <mxGeometry relative="1" as="geometry" />
        </mxCell>
        <mxCell id="q-ogtCQyWW32maulDkhW-48" value="" style="rounded=0;whiteSpace=wrap;html=1;fillColor=#a20025;fontColor=#ffffff;strokeColor=#6F0000;" vertex="1" parent="q-ogtCQyWW32maulDkhW-59">
          <mxGeometry y="170" width="840" height="600" as="geometry" />
        </mxCell>
        <mxCell id="q-ogtCQyWW32maulDkhW-49" value="" style="rounded=0;whiteSpace=wrap;html=1;fillColor=#001933;strokeColor=#23445d;" vertex="1" parent="q-ogtCQyWW32maulDkhW-59">
          <mxGeometry x="35" y="200" width="235" height="560" as="geometry" />
        </mxCell>
        <mxCell id="q-ogtCQyWW32maulDkhW-50" value="" style="rounded=0;whiteSpace=wrap;html=1;fillColor=#001933;strokeColor=#23445d;" vertex="1" parent="q-ogtCQyWW32maulDkhW-59">
          <mxGeometry x="285" y="200" width="235" height="560" as="geometry" />
        </mxCell>
        <mxCell id="q-ogtCQyWW32maulDkhW-51" value="" style="rounded=0;whiteSpace=wrap;html=1;fillColor=#001933;strokeColor=#23445d;" vertex="1" parent="q-ogtCQyWW32maulDkhW-59">
          <mxGeometry x="540" y="200" width="235" height="560" as="geometry" />
        </mxCell>
        <mxCell id="q-ogtCQyWW32maulDkhW-52" value="" style="shape=singleArrow;whiteSpace=wrap;html=1;" vertex="1" parent="q-ogtCQyWW32maulDkhW-59">
          <mxGeometry x="790" y="440" width="20" height="30" as="geometry" />
        </mxCell>
        <mxCell id="q-ogtCQyWW32maulDkhW-53" value="compareable tables" style="whiteSpace=wrap;html=1;rounded=0;" vertex="1" parent="q-ogtCQyWW32maulDkhW-59">
          <mxGeometry x="930" y="440" width="120" height="60" as="geometry" />
        </mxCell>
        <mxCell id="q-ogtCQyWW32maulDkhW-55" value="infos&lt;div&gt;brand&lt;br&gt;model&lt;br&gt;specs&lt;br&gt;benchmark&lt;br&gt;...&lt;/div&gt;" style="rounded=0;whiteSpace=wrap;html=1;" vertex="1" parent="q-ogtCQyWW32maulDkhW-59">
          <mxGeometry x="45" y="210" width="215" height="390" as="geometry" />
        </mxCell>
        <mxCell id="q-ogtCQyWW32maulDkhW-56" value="actions&lt;br&gt;remove&lt;br&gt;add to basket&lt;br&gt;see more" style="rounded=0;whiteSpace=wrap;html=1;" vertex="1" parent="q-ogtCQyWW32maulDkhW-59">
          <mxGeometry x="45" y="610" width="215" height="140" as="geometry" />
        </mxCell>
        <mxCell id="q-ogtCQyWW32maulDkhW-60" value="Smart Assembly" style="rounded=0;whiteSpace=wrap;html=1;align=center;verticalAlign=middle;fontSize=28;fillColor=default;strokeColor=none;fillStyle=solid;" vertex="1" parent="1">
          <mxGeometry y="1100" width="1700" height="60" as="geometry" />
        </mxCell>
        <mxCell id="q-ogtCQyWW32maulDkhW-61" value="" style="rounded=0;whiteSpace=wrap;html=1;strokeColor=none;" vertex="1" parent="1">
          <mxGeometry x="40" y="1200" width="760" height="960" as="geometry" />
        </mxCell>
        <mxCell id="q-ogtCQyWW32maulDkhW-62" value="Header" style="rounded=0;whiteSpace=wrap;html=1;" vertex="1" parent="1">
          <mxGeometry x="40" y="1200" width="760" height="60" as="geometry" />
        </mxCell>
        <mxCell id="q-ogtCQyWW32maulDkhW-85" value="" style="rounded=0;whiteSpace=wrap;html=1;" vertex="1" parent="1">
          <mxGeometry x="40" y="1260" width="380" height="720" as="geometry" />
        </mxCell>
        <mxCell id="q-ogtCQyWW32maulDkhW-84" value="" style="group" vertex="1" connectable="0" parent="1">
          <mxGeometry x="50" y="1270" width="360" height="690" as="geometry" />
        </mxCell>
        <mxCell id="q-ogtCQyWW32maulDkhW-74" value="CPU" style="rounded=0;whiteSpace=wrap;html=1;" vertex="1" parent="q-ogtCQyWW32maulDkhW-84">
          <mxGeometry width="359.9999999999999" height="60" as="geometry" />
        </mxCell>
        <mxCell id="q-ogtCQyWW32maulDkhW-75" value="GPU" style="rounded=0;whiteSpace=wrap;html=1;" vertex="1" parent="q-ogtCQyWW32maulDkhW-84">
          <mxGeometry y="70" width="359.9999999999999" height="60" as="geometry" />
        </mxCell>
        <mxCell id="q-ogtCQyWW32maulDkhW-76" value="RAM" style="rounded=0;whiteSpace=wrap;html=1;" vertex="1" parent="q-ogtCQyWW32maulDkhW-84">
          <mxGeometry y="140" width="359.9999999999999" height="60" as="geometry" />
        </mxCell>
        <mxCell id="q-ogtCQyWW32maulDkhW-77" value="mother board" style="rounded=0;whiteSpace=wrap;html=1;" vertex="1" parent="q-ogtCQyWW32maulDkhW-84">
          <mxGeometry y="210" width="359.9999999999999" height="60" as="geometry" />
        </mxCell>
        <mxCell id="q-ogtCQyWW32maulDkhW-78" value="power" style="rounded=0;whiteSpace=wrap;html=1;" vertex="1" parent="q-ogtCQyWW32maulDkhW-84">
          <mxGeometry y="280" width="359.9999999999999" height="60" as="geometry" />
        </mxCell>
        <mxCell id="q-ogtCQyWW32maulDkhW-79" value="case" style="rounded=0;whiteSpace=wrap;html=1;" vertex="1" parent="q-ogtCQyWW32maulDkhW-84">
          <mxGeometry y="350" width="359.9999999999999" height="60" as="geometry" />
        </mxCell>
        <mxCell id="q-ogtCQyWW32maulDkhW-80" value="monitor" style="rounded=0;whiteSpace=wrap;html=1;" vertex="1" parent="q-ogtCQyWW32maulDkhW-84">
          <mxGeometry y="420" width="359.9999999999999" height="60" as="geometry" />
        </mxCell>
        <mxCell id="q-ogtCQyWW32maulDkhW-81" value="keyboard" style="rounded=0;whiteSpace=wrap;html=1;" vertex="1" parent="q-ogtCQyWW32maulDkhW-84">
          <mxGeometry y="490" width="359.9999999999999" height="60" as="geometry" />
        </mxCell>
        <mxCell id="q-ogtCQyWW32maulDkhW-82" value="mouse" style="rounded=0;whiteSpace=wrap;html=1;" vertex="1" parent="q-ogtCQyWW32maulDkhW-84">
          <mxGeometry y="560" width="359.9999999999999" height="60" as="geometry" />
        </mxCell>
        <mxCell id="q-ogtCQyWW32maulDkhW-83" value="accessories" style="rounded=0;whiteSpace=wrap;html=1;" vertex="1" parent="q-ogtCQyWW32maulDkhW-84">
          <mxGeometry y="630" width="359.9999999999999" height="60" as="geometry" />
        </mxCell>
        <mxCell id="q-ogtCQyWW32maulDkhW-87" value="" style="rounded=0;whiteSpace=wrap;html=1;" vertex="1" parent="1">
          <mxGeometry x="420" y="1260" width="380" height="720" as="geometry" />
        </mxCell>
        <mxCell id="q-ogtCQyWW32maulDkhW-89" value="Add to basket" style="rounded=0;whiteSpace=wrap;html=1;" vertex="1" parent="1">
          <mxGeometry x="40" y="1980" width="760" height="180" as="geometry" />
        </mxCell>
        <mxCell id="q-ogtCQyWW32maulDkhW-95" value="&lt;h1 style=&quot;margin-top: 0px;&quot;&gt;&lt;span style=&quot;background-color: transparent; color: light-dark(rgb(0, 0, 0), rgb(255, 255, 255));&quot;&gt;components informations&lt;/span&gt;&lt;/h1&gt;&lt;h1 style=&quot;margin-top: 0px;&quot;&gt;&lt;span style=&quot;font-size: 12px; font-weight: 400;&quot;&gt;cpu :&lt;br&gt;GPU :&amp;nbsp;&lt;br&gt;RAM :&amp;nbsp;&lt;br&gt;...&lt;/span&gt;&lt;/h1&gt;" style="text;html=1;whiteSpace=wrap;overflow=hidden;rounded=0;" vertex="1" parent="1">
          <mxGeometry x="435" y="1270" width="350" height="180" as="geometry" />
        </mxCell>
        <mxCell id="q-ogtCQyWW32maulDkhW-98" value="&lt;h1 style=&quot;margin-top: 0px;&quot;&gt;&lt;span style=&quot;background-color: transparent; color: light-dark(rgb(0, 0, 0), rgb(255, 255, 255));&quot;&gt;system rating&lt;/span&gt;&lt;/h1&gt;&lt;h1 style=&quot;margin-top: 0px;&quot;&gt;&lt;span style=&quot;font-size: 12px; font-weight: 400; background-color: transparent; color: light-dark(rgb(0, 0, 0), rgb(255, 255, 255));&quot;&gt;benchmark :&amp;nbsp;&lt;br&gt;Users rating :&amp;nbsp;&lt;br&gt;&lt;/span&gt;&lt;span style=&quot;font-size: 12px; font-weight: 400;&quot;&gt;popularity :&amp;nbsp;&lt;br&gt;...&lt;/span&gt;&lt;/h1&gt;" style="text;html=1;whiteSpace=wrap;overflow=hidden;rounded=0;" vertex="1" parent="1">
          <mxGeometry x="435" y="1460" width="350" height="180" as="geometry" />
        </mxCell>
        <mxCell id="q-ogtCQyWW32maulDkhW-99" value="&lt;h1 style=&quot;margin-top: 0px;&quot;&gt;values&lt;/h1&gt;&lt;div&gt;price :&lt;br&gt;reward :&amp;nbsp;&lt;br&gt;discount :&amp;nbsp;&lt;br&gt;...&lt;/div&gt;" style="text;html=1;whiteSpace=wrap;overflow=hidden;rounded=0;" vertex="1" parent="1">
          <mxGeometry x="435" y="1670" width="350" height="180" as="geometry" />
        </mxCell>
      </root>
    </mxGraphModel>
  </diagram>
</mxfile>
